<?xml version="1.0" encoding="utf-8"?>
<!-- Generator: Adobe Illustrator 26.2.1, SVG Export Plug-In . SVG Version: 6.00 Build 0)  -->
<svg version="1.1" id="Layer_1" xmlns="http://www.w3.org/2000/svg" xmlns:xlink="http://www.w3.org/1999/xlink" x="0px" y="0px"
	 viewBox="0 0 512 512" style="enable-background:new 0 0 512 512;" xml:space="preserve">
<style type="text/css">
	.st0{fill:#FFFFFF;}
</style>
<path class="st0" d="M234.5,5.7c13.9-5,29.1-5,43,0l192,68.6c24.6,9.1,42.5,33.2,42.5,60.3v242.8c0,27.1-17.9,51.2-42.5,60.3
	l-192,68.6c-13.9,5-29.1,5-43,0l-192-68.6C17,428.6,0,404.5,0,377.4V134.6c0-27.1,17-51.2,42.5-60.3L234.5,5.7z M256,66L82.3,128
	L256,190l173.7-62L256,66z M288,434.6l160-57.2v-188l-160,57.2V434.6z"/>
</svg>
