<?xml version="1.0" encoding="utf-8"?>
<!-- Generator: Adobe Illustrator 26.2.1, SVG Export Plug-In . SVG Version: 6.00 Build 0)  -->
<svg version="1.1" id="Layer_1" xmlns="http://www.w3.org/2000/svg" xmlns:xlink="http://www.w3.org/1999/xlink" x="0px" y="0px"
	 viewBox="0 0 512 512" style="enable-background:new 0 0 512 512;" xml:space="preserve">
<style type="text/css">
	.st0{fill:#FFFFFF;}
</style>
<path class="st0" d="M256,0C114.6,0,0,114.6,0,256s114.6,256,256,256s256-114.6,256-256S397.4,0,256,0z M256,80
	c22.1,0,40,17.9,40,40s-17.9,40-40,40s-40-17.9-40-40S233.9,80,256,80z M374.6,215.1L315.3,232c-3.7,1.1-7.5,1.6-11.3,2.4v62.3
	l30.6,87.3c4.4,12.5-2.2,26.2-14.7,30.6c-2.7,1-5.4,1.4-8,1.4c-9.9,0-19.2-6.2-22.6-16.1l-25.9-70.6c-2.6-7-12.5-7-15,0l-25.9,70.6
	c-3.4,9.9-12.7,16.1-22.6,16.1c-2.6,0-5.3-0.4-8-1.3c-12.5-4.4-19.1-18.1-14.7-30.6l30.6-87.4v-62.3c-3.8-0.8-7.6-1.3-11.3-2.4
	l-59.3-16.9c-12.7-3.7-20.1-16.9-16.5-29.7s17-20.2,29.7-16.5l59.2,16.9c30.2,8.6,62.1,8.6,92.3,0l59.2-16.9
	c12.7-3.8,26,3.7,29.7,16.5C394.7,198.2,387.3,211.4,374.6,215.1z"/>
</svg>
