<?xml version="1.0" encoding="utf-8"?>
<!-- Generator: Adobe Illustrator 26.2.1, SVG Export Plug-In . SVG Version: 6.00 Build 0)  -->
<svg version="1.1" id="Layer_1" xmlns="http://www.w3.org/2000/svg" xmlns:xlink="http://www.w3.org/1999/xlink" x="0px" y="0px"
	 viewBox="0 0 384 512" style="enable-background:new 0 0 384 512;" xml:space="preserve">
<style type="text/css">
	.st0{fill:#FFFFFF;}
</style>
<path class="st0" d="M336,64h-53.9C268.9,26.8,233.7,0,192,0s-76.9,26.8-90.1,64H48C21.5,64,0,85.5,0,112v352c0,26.5,21.5,48,48,48
	h288c26.5,0,48-21.5,48-48V112C384,85.5,362.5,64,336,64z M192,64c17.7,0,32,14.3,32,32s-14.3,32-32,32s-32-14.3-32-32
	C160,78.3,174.3,64,192,64z M272,224H112c-8.8,0-16-7.2-16-16s7.2-16,16-16h160c8.8,0,16,7.2,16,16S280.8,224,272,224z"/>
</svg>
