<?xml version="1.0" encoding="utf-8"?>
<!-- Generator: Adobe Illustrator 26.2.1, SVG Export Plug-In . SVG Version: 6.00 Build 0)  -->
<svg version="1.1" id="Layer_1" xmlns="http://www.w3.org/2000/svg" xmlns:xlink="http://www.w3.org/1999/xlink" x="0px" y="0px"
	 viewBox="0 0 384 512" style="enable-background:new 0 0 384 512;" xml:space="preserve">
<style type="text/css">
	.st0{fill:#FFFFFF;}
</style>
<path class="st0" d="M112.1,454.3c0,6.3,1.8,12.4,5.3,17.7l17.1,25.7c5.2,7.9,17.2,14.3,26.6,14.3h61.7c9.4,0,21.4-6.4,26.6-14.3
	l17.1-25.7c2.9-4.4,5.3-12.4,5.3-17.7l0.1-39.2H112L112.1,454.3z M191.4,0C89.4,0.3,16,83,16,175.1c0,44.4,16.4,84.8,43.6,115.8
	c16.5,18.8,42.3,58.2,52.2,91.5c0,0.2,0.1,0.5,0.1,0.8h160.2c0-0.3,0.1-0.5,0.1-0.8c9.9-33.2,35.7-72.6,52.2-91.5
	c27.2-30.1,43.6-70.5,43.6-115.8C368,78.6,288.9-0.3,191.4,0z M192,96c-44.1,0-80,35.9-80,79.1c0,9.7-7.2,16.9-16,16.9
	s-16-7.2-16-16c0-61.8,50.2-111.1,112-111.1c8.8,0,16,7.2,16,16S200.8,96,192,96z"/>
</svg>
